<svg width="120" height="120" viewBox="0 0 120 120" fill="none" xmlns="http://www.w3.org/2000/svg">
<g clip-path="url(#clip0_327_10573)">
<path d="M110.4 16.803C99.8 7.68378 85.2 3.75 63 3.75C40.8 3.75 26.2 7.68378 15.6 16.803L15 17.3394V54.1738V57.3924C15 81.8891 34 103.704 62.4 111.571L63 111.75L63.6 111.571C92 103.704 111 81.8891 111 57.3924V17.3394L110.4 16.803Z" fill="#FFCA28"/>
<path d="M98.6 22.5249C90.8 17.1607 79.4 14.8362 63 14.8362V100.306L63.4 100.128C85 92.9753 99 76.1673 99 57.3925V22.7037L98.6 22.5249Z" fill="#FFECB3"/>
<path d="M27.4 22.5249L27 22.7037V57.3925C27 76.1673 41 92.9753 62.6 100.128L63 100.306V14.8362C46.6 14.8362 35.2 17.1607 27.4 22.5249Z" fill="#FFF8E1"/>
<path d="M59.7998 77.4188L39.7998 52.3857L46.1998 48.0943L61.9998 67.942L79.3998 30.9287L86.5998 33.7896L66.5998 76.7035L59.7998 77.4188Z" fill="#4CAF50"/>
</g>
<defs>
<clipPath id="clip0_327_10573">
<rect width="120" height="120" fill="white"/>
</clipPath>
</defs>
</svg>
