<svg width="64" height="64" viewBox="0 0 64 64" fill="none" xmlns="http://www.w3.org/2000/svg">
<path d="M14 53C21.382 53 27.433 47.253 27.949 40H32C32.309 40 32.6 39.857 32.789 39.614L36.746 34.526C36.27 35.933 36 37.434 36 39C36 46.72 42.28 53 50 53C57.72 53 64 46.72 64 39C64 31.28 57.72 25 50 25C49.263 25 48.545 25.074 47.838 25.185L45.257 14H54C55.103 14 56 14.897 56 16C56 17.103 55.103 18 54 18H52V20H54C56.206 20 58 18.206 58 16C58 13.794 56.206 12 54 12H44C43.695 12 43.407 12.139 43.218 12.377C43.028 12.615 42.957 12.927 43.026 13.225L44.589 20H26.155L25.428 18H30C31.654 18 33 16.654 33 15C33 13.346 31.654 12 30 12H20C17.794 12 16 13.794 16 16C16 18.206 17.794 20 20 20C20.266 20 20.52 19.895 20.707 19.707L22.414 18H23.3L24.217 20.521L24.147 20.478L20.422 26.573C18.496 25.574 16.315 25 14 25C6.28 25 0 31.28 0 39C0 46.72 6.28 53 14 53ZM22 16C21.734 16 21.48 16.105 21.293 16.293L19.622 17.964C18.699 17.787 18 16.974 18 16C18 14.897 18.897 14 20 14H30C30.552 14 31 14.449 31 15C31 15.551 30.552 16 30 16H22ZM50 27C56.617 27 62 32.383 62 39C62 45.617 56.617 51 50 51C43.383 51 38 45.617 38 39C38 33.661 41.507 29.129 46.337 27.576L49.025 39.225L50.974 38.775L48.288 27.137C48.849 27.056 49.417 27 50 27ZM42.397 27.261L45.38 23.426L45.886 25.619C44.638 26.003 43.469 26.564 42.397 27.261ZM43.956 22L32.321 36.958L26.882 22H43.956ZM25.055 22.828L30.573 38H27.95C27.646 33.725 25.42 29.98 22.126 27.621L25.055 22.828ZM25.949 38H15.783L21.08 29.333C23.803 31.333 25.654 34.445 25.949 38ZM14 27C15.934 27 17.756 27.471 19.375 28.286L13.146 38.478C12.958 38.787 12.951 39.173 13.127 39.489C13.303 39.805 13.639 40 14 40H25.949C25.438 46.149 20.28 51 14 51C7.383 51 2 45.617 2 39C2 32.383 7.383 27 14 27Z" fill="#025A3D"/>
<path d="M50 49C55.514 49 60 44.514 60 39H58C58 43.411 54.411 47 50 47V49Z" fill="#025A3D"/>
<path d="M14 31V29C8.486 29 4 33.486 4 39H6C6 34.589 9.589 31 14 31Z" fill="#025A3D"/>
<path d="M12.4529 13.374L11.0059 11.994C10.5239 12.5 10.0529 13.031 9.60889 13.571L11.1519 14.842C11.5659 14.339 12.0039 13.845 12.4529 13.374Z" fill="#025A3D"/>
<path d="M15.3572 10.7369L14.1232 9.16394C13.5702 9.59794 13.0282 10.0549 12.5142 10.5219L13.8582 12.0029C14.3382 11.5679 14.8432 11.1419 15.3572 10.7369Z" fill="#025A3D"/>
<path d="M18.6082 8.54896L17.6142 6.81396C17.0082 7.16196 16.4062 7.53596 15.8262 7.92596L16.9432 9.58496C17.4832 9.22096 18.0442 8.87296 18.6082 8.54896Z" fill="#025A3D"/>
<path d="M22.142 6.857L21.413 4.995C20.765 5.248 20.114 5.531 19.48 5.835L20.343 7.639C20.935 7.356 21.539 7.093 22.142 6.857Z" fill="#025A3D"/>
<path d="M9.95985 16.401L8.32885 15.243C7.92585 15.811 7.53585 16.404 7.17285 17.006L8.88385 18.041C9.22285 17.481 9.58485 16.93 9.95985 16.401Z" fill="#025A3D"/>
<path d="M6.40809 23.369L4.51409 22.73C4.29009 23.393 4.08809 24.073 3.91309 24.751L5.85109 25.25C6.01309 24.618 6.20009 23.985 6.40809 23.369Z" fill="#025A3D"/>
<path d="M7.92977 19.755L6.14877 18.847C5.82977 19.473 5.53077 20.117 5.25977 20.759L7.10377 21.534C7.35377 20.936 7.63277 20.337 7.92977 19.755Z" fill="#025A3D"/>
<path d="M49.4028 8.80005C48.8408 8.37905 48.2588 7.97405 47.6738 7.59705L46.5918 9.27905C47.1368 9.63005 47.6788 10.008 48.2018 10.4L49.4028 8.80005Z" fill="#025A3D"/>
<path d="M45.861 6.52105C45.243 6.18505 44.608 5.86905 43.976 5.58105L43.1479 7.40205C43.7379 7.67005 44.3289 7.96406 44.9059 8.27706L45.861 6.52105Z" fill="#025A3D"/>
<path d="M25.8849 5.69495L25.4339 3.74695C24.7479 3.90595 24.0639 4.09095 23.3989 4.29695L23.9929 6.20695C24.6099 6.01495 25.2469 5.84295 25.8849 5.69495Z" fill="#025A3D"/>
<path d="M42.0252 4.781C41.3672 4.538 40.6922 4.318 40.0222 4.125L39.4702 6.047C40.0942 6.226 40.7212 6.432 41.3342 6.658L42.0252 4.781Z" fill="#025A3D"/>
<path d="M29.756 5.092L29.592 3.099C28.892 3.157 28.189 3.24 27.501 3.347L27.808 5.324C28.449 5.224 29.104 5.146 29.756 5.092Z" fill="#025A3D"/>
<path d="M37.9768 3.61701C37.2908 3.47301 36.5928 3.35301 35.8998 3.26001L35.6338 5.24201C36.2788 5.32801 36.9288 5.44001 37.5668 5.57401L37.9768 3.61701Z" fill="#025A3D"/>
<path d="M31.9998 5C32.5638 5 33.1238 5.018 33.6798 5.051L33.8008 3.055C33.2058 3.019 32.6048 3 31.9998 3L31.6948 3.001L31.7148 5.001L31.9998 5Z" fill="#025A3D"/>
<path d="M17.143 54.547L16.041 56.216C16.629 56.604 17.234 56.973 17.84 57.313L18.819 55.569C18.254 55.252 17.69 54.909 17.143 54.547Z" fill="#025A3D"/>
<path d="M22.3669 57.231C21.7559 56.998 21.1479 56.74 20.5619 56.465L19.7119 58.276C20.3429 58.572 20.9959 58.849 21.6529 59.1L22.3669 57.231Z" fill="#025A3D"/>
<path d="M49.607 55.044L48.392 53.455C47.877 53.849 47.339 54.231 46.79 54.591L47.89 56.262C48.478 55.876 49.056 55.466 49.607 55.044Z" fill="#025A3D"/>
<path d="M38.231 60.329L37.803 58.375C37.167 58.514 36.518 58.632 35.873 58.725L36.158 60.704C36.852 60.604 37.549 60.479 38.231 60.329Z" fill="#025A3D"/>
<path d="M46.0882 57.3541L45.1152 55.6071C44.5462 55.9241 43.9582 56.2241 43.3682 56.4981L44.2122 58.3111C44.8462 58.0171 45.4772 57.6951 46.0882 57.3541Z" fill="#025A3D"/>
<path d="M42.2691 59.129L41.5601 57.259C40.9491 57.49 40.3241 57.701 39.7031 57.886L40.2711 59.803C40.9381 59.605 41.6101 59.378 42.2691 59.129Z" fill="#025A3D"/>
<path d="M30.0022 58.927C29.3512 58.88 28.6942 58.808 28.0522 58.714L27.7612 60.693C28.4522 60.795 29.1572 60.872 29.8562 60.923L30.0022 58.927Z" fill="#025A3D"/>
<path d="M33.9249 58.933C33.2899 58.978 32.6429 59 31.9619 59L31.9999 61C32.6879 61 33.3839 60.976 34.0649 60.928L33.9249 58.933Z" fill="#025A3D"/>
<path d="M26.1209 58.359C25.4849 58.217 24.8469 58.051 24.2229 57.863L23.6489 59.779C24.3179 59.98 25.0039 60.159 25.6879 60.311L26.1209 58.359Z" fill="#025A3D"/>
</svg>
