<svg width="120" height="120" viewBox="0 0 120 120" fill="none" xmlns="http://www.w3.org/2000/svg">
<path d="M87.4564 78.9504H50.4307V86.3894H87.4564V78.9504Z" fill="#FFD740"/>
<path d="M67.0922 78.9504H50.4307V86.3894H67.0922V78.9504Z" fill="#FFE57F"/>
<path d="M87.4564 84.5298H50.4307V86.3895H87.4564V84.5298Z" fill="#FFC400"/>
<path d="M54.133 78.9504H52.2817V84.5297H54.133V78.9504Z" fill="white"/>
<path d="M76.3488 78.9504H74.4976V84.5297H76.3488V78.9504Z" fill="#FFC400"/>
<path d="M80.051 78.9504H78.1997V84.5297H80.051V78.9504Z" fill="#FFC400"/>
<path d="M83.7536 78.9504H81.9023V84.5297H83.7536V78.9504Z" fill="#FFC400"/>
<path d="M87.4563 78.9504H85.605V84.5297H87.4563V78.9504Z" fill="#FFC400"/>
<path d="M85.6053 71.5115H48.5796V78.9505H85.6053V71.5115Z" fill="#FFD740"/>
<path d="M65.2412 71.5115H48.5796V78.9505H65.2412V71.5115Z" fill="#FFE57F"/>
<path d="M85.6053 77.0908H48.5796V78.9506H85.6053V77.0908Z" fill="#FFC400"/>
<path d="M52.2819 71.5115H50.4307V77.0907H52.2819V71.5115Z" fill="white"/>
<path d="M74.4978 71.5115H72.6465V77.0907H74.4978V71.5115Z" fill="#FFC400"/>
<path d="M78.2004 71.5115H76.3491V77.0907H78.2004V71.5115Z" fill="#FFC400"/>
<path d="M81.9026 71.5115H80.0513V77.0907H81.9026V71.5115Z" fill="#FFC400"/>
<path d="M85.6052 71.5115H83.7539V77.0907H85.6052V71.5115Z" fill="#FFC400"/>
<path d="M56.4086 43.0491C49.5533 36.1606 49.5533 24.9537 56.4086 18.0615C63.2676 11.1748 74.4234 11.1748 81.2824 18.0615C88.1396 24.9519 88.1396 36.1587 81.2824 43.0491C74.4253 49.9395 63.2676 49.9376 56.4086 43.0491Z" fill="#FFD740"/>
<path d="M68.9435 13.8598C78.1315 13.8598 85.6051 21.3676 85.6051 30.5975C85.6051 39.8274 78.1315 47.3353 68.9435 47.3353C59.7556 47.3353 52.2819 39.8274 52.2819 30.5975C52.2819 21.3676 59.7556 13.8598 68.9435 13.8598ZM68.9435 12C58.7189 12 50.4307 20.328 50.4307 30.5975C50.4307 40.867 58.7189 49.195 68.9435 49.195C79.1682 49.195 87.4564 40.867 87.4564 30.5975C87.4564 20.328 79.1682 12 68.9435 12Z" fill="#FDD835"/>
<path d="M54.4811 40.5026C51.582 33.722 52.8594 25.5744 58.3707 20.0342C64.1708 14.2095 72.8477 13.0862 79.7864 16.6123C79.7864 16.4133 79.7901 16.2161 79.8012 16.019C72.67 11.6337 63.234 12.5189 57.0618 18.7193C51.1673 24.6408 50.0825 33.5602 53.7999 40.59C54.0257 40.5547 54.2516 40.5212 54.4811 40.5026Z" fill="white"/>
<path d="M68.9437 44.5449C61.2868 44.5449 55.0591 38.2887 55.0591 30.5968C55.0591 22.9049 61.2868 16.6487 68.9437 16.6487C76.6006 16.6487 82.8284 22.9049 82.8284 30.5968C82.8284 38.2887 76.6006 44.5449 68.9437 44.5449Z" fill="#FFE57F"/>
<path d="M68.9436 17.5792C76.0877 17.5792 81.9026 23.4207 81.9026 30.5975C81.9026 37.7743 76.0877 43.6157 68.9436 43.6157C61.7995 43.6157 55.9846 37.7743 55.9846 30.5975C55.9846 23.4207 61.7995 17.5792 68.9436 17.5792ZM68.9436 15.7195C60.7646 15.7195 54.1333 22.3848 54.1333 30.5975C54.1333 38.8101 60.7646 45.4755 68.9436 45.4755C77.1226 45.4755 83.7539 38.8101 83.7539 30.5975C83.7539 22.3848 77.1226 15.7195 68.9436 15.7195Z" fill="#FFC400"/>
<path d="M68.9435 25.0183C70.2746 25.0183 70.7948 25.9873 70.7948 26.8781H74.4974C74.4974 25.3642 73.2496 23.8671 70.7948 23.3557V21.2988H67.0922V23.3297C64.6374 23.776 63.3896 25.2062 63.3896 27.808C63.3896 30.2498 65.2983 32.4573 68.9435 32.4573C70.0117 32.4573 70.7948 33.2719 70.7948 34.3171C70.7948 35.4236 70.1765 36.1768 68.9435 36.1768C67.7105 36.1768 67.0922 35.4943 67.0922 34.3171H63.3896C63.3896 36.6325 64.6559 37.6274 67.0922 37.925V39.8963H70.7948V37.8971C73.2496 37.5251 74.5436 36.2717 74.4974 33.3872C74.4974 30.83 72.6461 28.7397 68.9435 28.7397C67.9012 28.7397 67.0922 28.1576 67.0922 26.8781C67.0922 25.9147 67.6124 25.0183 68.9435 25.0183Z" fill="#FFAB00"/>
<path d="M68.9435 13.8598C78.1315 13.8598 85.6051 21.3676 85.6051 30.5975C85.6051 39.8274 78.1315 47.3353 68.9435 47.3353C59.7556 47.3353 52.2819 39.8274 52.2819 30.5975C52.2819 21.3676 59.7556 13.8598 68.9435 13.8598ZM68.9435 12C58.7189 12 50.4307 20.328 50.4307 30.5975C50.4307 40.867 58.7189 49.195 68.9435 49.195C79.1682 49.195 87.4564 40.867 87.4564 30.5975C87.4564 20.328 79.1682 12 68.9435 12Z" fill="#FFC400"/>
<path d="M87.4564 49.1941H50.4307V56.6331H87.4564V49.1941Z" fill="#FFD740"/>
<path d="M67.0922 49.1941H50.4307V56.6331H67.0922V49.1941Z" fill="#FFE57F"/>
<path d="M87.4564 54.7734H50.4307V56.6332H87.4564V54.7734Z" fill="#FFC400"/>
<path d="M54.133 49.1941H52.2817V54.7733H54.133V49.1941Z" fill="white"/>
<path d="M76.3488 49.1941H74.4976V54.7733H76.3488V49.1941Z" fill="#FFC400"/>
<path d="M80.051 49.1941H78.1997V54.7733H80.051V49.1941Z" fill="#FFC400"/>
<path d="M83.7536 49.1941H81.9023V54.7733H83.7536V49.1941Z" fill="#FFC400"/>
<path d="M87.4563 49.1941H85.605V54.7733H87.4563V49.1941Z" fill="#FFC400"/>
<path d="M85.6053 56.6333H48.5796V64.0723H85.6053V56.6333Z" fill="#FFD740"/>
<path d="M65.2412 56.6333H48.5796V64.0723H65.2412V56.6333Z" fill="#FFE57F"/>
<path d="M85.6053 62.2126H48.5796V64.0724H85.6053V62.2126Z" fill="#FFC400"/>
<path d="M52.2819 56.6333H50.4307V62.2126H52.2819V56.6333Z" fill="white"/>
<path d="M74.4978 56.6333H72.6465V62.2126H74.4978V56.6333Z" fill="#FFC400"/>
<path d="M78.2004 56.6333H76.3491V62.2126H78.2004V56.6333Z" fill="#FFC400"/>
<path d="M81.9026 56.6333H80.0513V62.2126H81.9026V56.6333Z" fill="#FFC400"/>
<path d="M85.6052 56.6333H83.7539V62.2126H85.6052V56.6333Z" fill="#FFC400"/>
<path d="M87.4564 64.0723H50.4307V71.5113H87.4564V64.0723Z" fill="#FFD740"/>
<path d="M67.0922 64.0723H50.4307V71.5113H67.0922V64.0723Z" fill="#FFE57F"/>
<path d="M87.4564 69.6516H50.4307V71.5114H87.4564V69.6516Z" fill="#FFC400"/>
<path d="M54.133 64.0723H52.2817V69.6515H54.133V64.0723Z" fill="white"/>
<path d="M76.3488 64.0723H74.4976V69.6515H76.3488V64.0723Z" fill="#FFC400"/>
<path d="M80.051 64.0723H78.1997V69.6515H80.051V64.0723Z" fill="#FFC400"/>
<path d="M83.7536 64.0723H81.9023V69.6515H83.7536V64.0723Z" fill="#FFC400"/>
<path d="M87.4563 64.0723H85.605V69.6515H87.4563V64.0723Z" fill="#FFC400"/>
<path opacity="0.1" d="M85.6051 82.5649C85.5514 82.5798 85.4903 82.5947 85.4903 82.5947L83.6501 82.671C83.6501 82.671 81.1546 73.3722 70.6782 73.3722H57.8025L54.1332 71.5125H50.4307V78.9515H54.1332V84.5307V86.3905H70.7948H85.6051V82.5649Z" fill="#37474F"/>
<path d="M48.4649 86.3904H81.9028C81.9028 84.5307 81.9028 75.2319 68.8272 75.2319H48.463C45.3973 75.2319 42.9092 77.7314 42.9092 80.8112C42.9092 83.8909 45.3973 86.3904 48.4649 86.3904Z" fill="#F4D0A1"/>
<path d="M81.827 84.8391C77.3006 85.756 72.6465 86.3901 72.6465 86.3901H81.9029C81.9029 86.0684 81.8955 85.5179 81.827 84.8391Z" fill="#F4D0A1"/>
<path d="M102.267 73.3712C96.5428 76.8211 93.0106 80.8102 89.308 82.7202C88.1232 83.3302 85.9905 83.9253 83.6393 84.4535C83.7152 85.0746 83.7541 85.72 83.7541 86.3895V88.2492H81.9028H52.2823V86.3895H72.6464L55.9848 82.67L57.8361 77.0907C57.8361 77.0907 54.1336 71.5115 43.0258 71.5115C33.7694 71.5115 31.9181 75.231 28.2156 75.231H13.4053V99.4077H33.7694L63.5233 107.712C65.493 108.26 68.5939 108.002 70.4471 107.133L94.8618 95.6882L113.375 78.9505C115.226 77.0907 111.523 67.792 102.267 73.3712Z" fill="#F4D0A1"/>
<path d="M102.267 77.0906C96.7131 80.8101 93.0106 84.5296 89.308 86.4396C88.1435 87.0403 86.0608 87.442 83.7541 87.7117V88.2491H81.9028H73.3258C72.9037 88.251 72.6464 88.2491 72.6464 88.2491H52.2823V86.3894H67.0926H81.9028C81.9028 84.5296 80.9346 78.9504 68.8272 78.9504H55.9515C53.8559 77.3268 49.8386 75.2309 43.0258 75.2309C33.7694 75.2309 31.9181 78.9504 28.2156 78.9504H13.4053V99.4076H33.7694L63.5233 107.711C65.493 108.26 68.5939 108.002 70.4471 107.133L94.8618 95.6881L113.375 78.9504C115.226 77.0906 113.375 69.6516 102.267 77.0906Z" fill="#EDBC7C"/>
<path d="M80.0514 84.5309C80.0514 81.4512 77.5632 78.9517 74.4975 78.9517C71.4318 78.9517 70.7949 81.4512 70.7949 84.5309C70.7949 85.1874 70.8338 85.8067 70.9079 86.3907H79.7126C79.9181 85.8067 80.0514 85.1874 80.0514 84.5309Z" fill="#F6D9B4"/>
<path d="M28.2155 73.3713H22.6616V101.268H28.2155V73.3713Z" fill="#CFD8DC"/>
<path d="M28.2155 80.8103H22.6616V101.268H28.2155V80.8103Z" fill="#B0BEC5"/>
<path d="M22.6616 71.5115H6V106.847H22.6616V71.5115Z" fill="#546E7A"/>
<path d="M22.6616 80.8103H6V106.847H22.6616V80.8103Z" fill="#455A64"/>
</svg>
