<svg width="120" height="120" viewBox="0 0 120 120" fill="none" xmlns="http://www.w3.org/2000/svg">
<g clip-path="url(#clip0_520_3946)">
<path d="M55.2719 7.11448C57.16 10.6353 58.4817 17.8369 58.4817 29.3595V86.9725H62.2579V30.4798C62.2579 17.9969 59.4258 10.1552 57.3488 6.15426C55.2719 2.47343 53.195 3.27361 55.2719 7.11448Z" fill="#33691E"/>
<path d="M66.6005 32.8801L65.2788 31.7599C68.2998 29.5194 69.055 25.1984 69.9991 21.8376C70.3767 20.7174 71.3208 19.7572 72.4536 19.4371C76.0411 18.3168 79.4396 17.0366 82.6494 15.5962C83.4047 15.2762 84.3487 15.1161 85.104 15.2762C89.8243 16.0763 93.6005 17.6767 97.9431 17.3566C103.419 17.0366 104.929 18.6369 99.076 19.117C94.3557 19.4371 89.4466 19.2771 84.3487 18.4769C80.9501 20.0772 77.3627 21.3575 73.5865 22.4778C72.6424 26.3187 69.9991 30.1595 66.6005 32.8801Z" fill="#33691E"/>
<path d="M94.7332 17.5167C96.2437 17.5167 97.5654 17.5167 98.887 17.3567C93.4115 18.637 88.1248 20.0773 82.8381 21.6777C76.6073 23.5981 71.3206 27.1189 67.5444 31.76C67.1668 31.4399 66.7891 31.4399 66.2227 31.4399C65.8451 31.4399 65.4675 31.5999 65.0898 31.76C68.2996 29.1994 70.5654 25.8386 71.6982 22.1578C71.887 21.5176 72.2647 21.1976 73.0199 20.8775C76.6073 19.7572 80.1947 18.477 83.4045 17.0366C83.7822 16.8766 84.3486 16.7166 84.7262 16.8766C88.1248 17.3567 91.3346 17.5167 94.7332 17.5167Z" fill="#558B2F"/>
<path d="M62.2577 48.564H60.3696C60.3696 43.6029 61.8801 38.6418 64.7123 34.1608C65.4675 33.0405 66.2228 32.0803 66.978 31.1201C70.9431 26.319 76.4186 22.7982 82.8382 20.8778C96.999 16.5568 115.125 14.1562 115.125 14.1562C109.649 15.1165 104.174 16.7168 99.0759 17.8371C93.4116 19.1174 88.3137 20.8778 83.4046 22.4781C77.3626 24.2385 72.2647 27.5993 68.4885 32.2403C67.7333 33.0405 66.978 34.0007 66.4116 35.121C63.5794 39.1219 62.2577 43.7629 62.2577 48.564Z" fill="#33691E"/>
<path d="M99.6424 22.7982C95.4886 29.5197 86.048 33.2006 76.4187 33.2006C73.5865 33.2006 67.5445 31.7602 67.5445 31.7602C66.9781 30.64 65.09 30.4799 63.9571 30.8C63.0131 31.1201 62.2578 31.9203 62.2578 33.0405C62.2578 34.0007 62.8242 34.9609 63.5795 35.6011C64.7124 34.3208 65.4676 32.7204 66.6005 33.3606C69.2438 34.8009 72.6424 36.4013 76.2298 36.4013C86.9921 36.4013 97.1879 31.7602 102.475 24.3986C105.307 20.3977 109.083 15.9166 114.747 14.1562C115.125 14.1563 103.607 16.3968 99.6424 22.7982Z" fill="#689F38"/>
<path d="M115.125 14.1562C109.461 16.0767 104.552 19.2774 101.342 23.5984C96.2439 30.4799 86.8033 34.8009 76.6075 34.8009C73.0201 34.8009 70.1879 33.6807 67.7334 31.7602C71.5096 27.2792 76.7963 23.5984 83.0271 21.6779C88.3138 20.0776 93.6005 18.6373 99.0761 17.357C104.74 17.0369 110.027 15.9166 115.125 14.1562Z" fill="#8BC34A"/>
<path d="M95.1108 17.837C100.398 16.3966 109.083 14.7963 115.125 14.3162C110.027 15.9165 106.251 19.5974 95.1108 17.837Z" fill="#558B2F"/>
<path d="M61.8802 47.9239C61.5026 46.3235 60.9362 44.8832 60.3698 43.1228C57.5376 35.9212 52.8173 29.6798 46.3977 24.3986C36.0131 15.9167 23.3628 11.5957 8.44668 11.5957H7.125L8.25787 12.3959C25.0621 23.7584 40.167 36.8814 53.1949 51.2847C53.3837 51.4447 53.3837 51.6047 53.5726 51.6047C54.139 52.0848 54.5166 52.725 54.8942 53.2051C55.2719 53.6852 55.4607 54.0053 55.6495 54.3253C56.7823 55.1255 59.0481 54.6454 60.1809 53.5252C61.3138 52.4049 62.0691 50.8046 62.0691 49.2042C62.0691 48.7241 62.0691 48.404 61.8802 47.9239Z" fill="#689F38"/>
<path d="M52.2509 50.1643C39.2229 36.0811 24.4956 23.4383 8.06906 12.2357L7.125 11.4355C10.5236 31.7601 28.8383 48.5639 53.0061 51.1245C53.0061 51.1245 52.6285 50.4844 52.2509 50.1643Z" fill="#558B2F"/>
<path d="M60.3698 67.7683H58.4816C58.4816 62.167 57.5376 57.686 54.3278 54.0052C53.1949 52.5648 51.4956 50.6444 51.4956 50.6444C49.2299 48.0838 50.7404 47.1236 53.0061 49.6842C53.0061 49.6842 54.5166 51.4446 55.8383 52.8849C59.2369 56.8858 60.3698 61.6869 60.3698 67.7683ZM46.7753 45.5232C44.3208 43.1227 42.2439 40.4021 39.6005 38.0015C38.6565 37.0413 39.4117 36.4012 40.5446 37.3614C42.9991 39.7619 45.8313 42.0024 48.2858 44.403C49.6075 46.0033 48.097 46.9636 46.7753 45.5232ZM37.146 35.761C32.0481 31.12 26.5726 26.4789 21.097 22.318C19.9642 21.5178 20.5306 20.8777 21.6635 21.6779C27.3278 25.9988 32.8033 30.4798 37.9012 35.1209C38.8453 35.9211 37.9012 36.5612 37.146 35.761ZM15.4327 17.997C12.9781 16.0766 9.39073 13.516 7.125 11.4355C7.125 11.4355 13.5446 15.5965 15.9991 17.3569C17.5096 18.6372 16.9432 19.1173 15.4327 17.997Z" fill="#33691E"/>
<path d="M96.4327 93.0539C96.4327 95.1344 94.3558 96.8948 91.9012 96.8948C89.4467 96.8948 87.3698 95.1344 87.3698 93.0539C87.3698 92.7339 87.3698 92.4138 87.5586 92.2538C86.4257 93.374 84.7264 94.1742 82.8383 94.1742C79.4397 94.1742 76.7963 91.7737 76.7963 88.893C76.7963 86.0124 79.4397 83.6118 82.8383 83.6118C86.2369 83.6118 88.8802 86.0124 88.8802 88.893C88.8802 89.3731 88.6914 89.8532 88.5026 90.3333C89.2579 89.5331 90.5795 89.053 91.9012 89.053C94.3558 89.2131 96.4327 90.9735 96.4327 93.0539ZM64.146 84.412C60.1809 84.412 56.7823 87.1326 56.7823 90.6534C56.7823 90.8134 56.7823 90.9735 56.7823 91.1335C56.4047 90.9735 56.0271 90.9735 55.6495 90.9735C55.4607 90.9735 55.2719 90.9735 55.2719 90.9735C55.2719 90.8134 55.2719 90.4934 55.2719 90.3333C55.2719 87.4527 52.6285 85.0521 49.2299 85.0521C45.8313 85.0521 43.1879 87.4527 43.1879 90.3333C43.1879 91.7737 43.7544 93.0539 44.8872 93.8541C44.5096 94.3342 44.5096 94.8143 44.5096 95.4545C44.5096 97.2149 46.2089 98.6552 48.2858 98.6552C50.3628 98.6552 52.0621 97.2149 52.0621 95.4545C52.0621 95.2944 52.0621 95.1344 52.0621 94.9744C52.2509 94.9744 52.4397 94.8143 52.6285 94.6543C53.0061 95.9346 54.3278 96.7348 55.8383 96.7348C57.3488 96.7348 58.4816 95.9346 59.0481 94.9744C60.3698 96.0946 62.2579 96.8948 64.3348 96.8948C68.2998 96.8948 71.6984 94.1742 71.6984 90.6534C71.3208 87.2926 68.111 84.412 64.146 84.412ZM38.6565 89.8532C36.2019 89.8532 34.125 91.6136 34.125 93.6941C34.125 95.7746 36.2019 97.535 38.6565 97.535C41.111 97.535 43.1879 95.7746 43.1879 93.6941C43.1879 91.6136 41.111 89.8532 38.6565 89.8532Z" fill="#212121"/>
<path d="M56.2159 89.2131C53.9501 89.2131 52.2508 87.6128 52.2508 85.8524C52.2508 83.9319 53.9501 82.4916 56.2159 82.4916C58.4816 82.4916 60.1809 84.092 60.1809 85.8524C60.1809 87.7728 58.4816 89.2131 56.2159 89.2131ZM60.1809 91.4536C57.9152 91.4536 56.0271 93.054 56.0271 94.9744C56.0271 96.8949 57.9152 98.4952 60.1809 98.4952C62.4466 98.4952 64.3347 96.8949 64.3347 94.9744C64.3347 93.054 62.4466 91.4536 60.1809 91.4536ZM73.5865 80.4111C71.6984 80.4111 69.8103 81.3713 69.055 82.6516C68.6774 82.4916 68.111 82.3316 67.5445 82.3316C65.8452 82.3316 64.5236 83.4518 64.5236 84.8921C64.5236 86.3325 65.8452 87.4527 67.5445 87.4527C68.111 87.4527 68.6774 87.2927 69.055 87.1326C69.9991 88.573 71.6984 89.3732 73.5865 89.3732C76.6075 89.3732 78.8732 87.2927 78.8732 84.8921C78.8732 82.4916 76.6075 80.4111 73.5865 80.4111ZM21.4746 91.4536C21.4746 92.8939 22.7963 94.0142 24.4956 94.0142C26.1949 94.0142 27.5166 92.8939 27.5166 91.4536C27.5166 90.0133 26.1949 88.893 24.4956 88.893C22.7963 88.893 21.4746 90.1733 21.4746 91.4536Z" fill="#6D4C41"/>
<path d="M81.1387 93.374C81.1387 96.8948 77.7401 99.7755 73.5862 99.7755C69.4324 99.7755 66.0338 96.8948 66.0338 93.374C66.0338 89.8533 69.4324 86.9726 73.5862 86.9726C77.7401 86.9726 81.1387 89.8533 81.1387 93.374ZM83.0268 82.9717C80.3834 82.9717 78.3065 84.7321 78.3065 86.9726C78.3065 89.2131 80.3834 90.9735 83.0268 90.9735C85.6702 90.9735 87.7471 89.2131 87.7471 86.9726C87.7471 84.7321 85.6702 82.9717 83.0268 82.9717ZM66.0338 83.7719C63.9569 83.7719 62.2576 85.2122 62.2576 86.9726C62.2576 88.733 63.9569 90.1733 66.0338 90.1733C68.1107 90.1733 69.81 88.733 69.81 86.9726C69.81 85.2122 68.1107 83.7719 66.0338 83.7719ZM90.5793 87.7728C89.0688 87.7728 87.7471 88.893 87.7471 90.1733C87.7471 91.4536 89.0688 92.5739 90.5793 92.5739C92.0897 92.5739 93.4114 91.4536 93.4114 90.1733C93.4114 88.893 92.0897 87.7728 90.5793 87.7728ZM43.3765 81.3713C39.789 81.3713 36.7681 83.9319 36.7681 86.9726C36.7681 90.0133 39.789 92.5739 43.3765 92.5739C46.9639 92.5739 49.9848 90.0133 49.9848 86.9726C49.9848 83.9319 46.9639 81.3713 43.3765 81.3713Z" fill="#3E2723"/>
<path d="M39.6005 91.7733C39.6005 95.2941 36.2019 98.1747 32.0481 98.1747C27.8942 98.1747 24.4956 95.2941 24.4956 91.7733C24.4956 88.2525 27.8942 85.3718 32.0481 85.3718C36.2019 85.3718 39.6005 88.2525 39.6005 91.7733ZM58.4816 86.9722C55.2718 86.9722 52.8173 89.0527 52.8173 91.7733C52.8173 94.4939 55.2718 96.5744 58.4816 96.5744C61.6914 96.5744 64.146 94.4939 64.146 91.7733C64.146 89.0527 61.6914 86.9722 58.4816 86.9722ZM50.9292 83.7715C48.8522 83.7715 47.1529 85.2118 47.1529 86.9722C47.1529 88.7326 48.8522 90.1729 50.9292 90.1729C53.0061 90.1729 54.7054 88.7326 54.7054 86.9722C54.7054 85.2118 53.0061 83.7715 50.9292 83.7715ZM84.9152 90.1729C81.7054 90.1729 79.2508 92.2534 79.2508 94.974C79.2508 97.6946 81.7054 99.7751 84.9152 99.7751C88.125 99.7751 90.5795 97.6946 90.5795 94.974C90.5795 92.2534 88.125 90.1729 84.9152 90.1729Z" fill="#4E342E"/>
<path d="M26.3835 94.974C26.3835 96.7344 24.6842 98.1748 22.6073 98.1748C20.5304 98.1748 18.8311 96.7344 18.8311 94.974C18.8311 93.2137 20.5304 91.7733 22.6073 91.7733C24.6842 91.7733 26.3835 93.2137 26.3835 94.974ZM43.3765 90.9731C40.7332 90.9731 38.6562 92.7335 38.6562 94.974C38.6562 97.2146 40.7332 98.975 43.3765 98.975C46.0199 98.975 48.0968 97.2146 48.0968 94.974C48.0968 92.7335 46.0199 90.9731 43.3765 90.9731ZM52.8171 94.1739C51.3066 94.1739 49.9849 95.2941 49.9849 96.5744C49.9849 97.8547 51.3066 98.975 52.8171 98.975C54.3276 98.975 55.6492 97.8547 55.6492 96.5744C55.6492 95.2941 54.3276 94.1739 52.8171 94.1739ZM64.1457 94.1739C62.6353 94.1739 61.3136 95.2941 61.3136 96.5744C61.3136 97.8547 62.6353 98.975 64.1457 98.975C65.6562 98.975 66.9779 97.8547 66.9779 96.5744C66.9779 95.2941 65.6562 94.1739 64.1457 94.1739ZM96.2436 91.7733C94.1667 91.7733 92.4674 93.2137 92.4674 94.974C92.4674 96.7344 94.1667 98.1748 96.2436 98.1748C98.3206 98.1748 100.02 96.7344 100.02 94.974C100.02 93.2137 98.3206 91.7733 96.2436 91.7733Z" fill="#5D4037"/>
</g>
<defs>
<clipPath id="clip0_520_3946">
<rect width="120" height="120" fill="white"/>
</clipPath>
</defs>
</svg>
