<svg width="324" height="207" viewBox="0 0 324 207" fill="none" xmlns="http://www.w3.org/2000/svg">
<path d="M80.4885 173.818L88.2612 195.858H88.568L96.3407 173.818H99.6646L90.051 200H86.7782L77.1646 173.818H80.4885ZM109.738 200.409C107.846 200.409 106.214 199.991 104.842 199.156C103.479 198.312 102.426 197.136 101.684 195.628C100.952 194.111 100.585 192.347 100.585 190.335C100.585 188.324 100.952 186.551 101.684 185.017C102.426 183.474 103.457 182.273 104.778 181.412C106.108 180.543 107.659 180.108 109.432 180.108C110.454 180.108 111.464 180.278 112.461 180.619C113.459 180.96 114.366 181.514 115.184 182.281C116.003 183.04 116.655 184.045 117.14 185.298C117.626 186.551 117.869 188.094 117.869 189.926V191.205H102.733V188.597H114.801C114.801 187.489 114.579 186.5 114.136 185.631C113.702 184.761 113.079 184.075 112.27 183.572C111.469 183.07 110.523 182.818 109.432 182.818C108.23 182.818 107.19 183.116 106.312 183.713C105.443 184.301 104.774 185.068 104.305 186.014C103.836 186.96 103.602 187.974 103.602 189.057V190.795C103.602 192.278 103.858 193.536 104.369 194.567C104.889 195.589 105.609 196.369 106.53 196.906C107.45 197.435 108.52 197.699 109.738 197.699C110.531 197.699 111.247 197.588 111.886 197.366C112.534 197.136 113.092 196.795 113.561 196.344C114.03 195.884 114.392 195.312 114.648 194.631L117.562 195.449C117.256 196.438 116.74 197.307 116.015 198.057C115.291 198.798 114.396 199.378 113.331 199.795C112.265 200.205 111.068 200.409 109.738 200.409ZM125.476 173.818V200H122.459V173.818H125.476ZM138.979 200.409C137.206 200.409 135.651 199.987 134.313 199.143C132.983 198.3 131.943 197.119 131.193 195.602C130.452 194.085 130.081 192.312 130.081 190.284C130.081 188.239 130.452 186.453 131.193 184.928C131.943 183.402 132.983 182.217 134.313 181.374C135.651 180.53 137.206 180.108 138.979 180.108C140.752 180.108 142.303 180.53 143.632 181.374C144.97 182.217 146.01 183.402 146.752 184.928C147.502 186.453 147.877 188.239 147.877 190.284C147.877 192.312 147.502 194.085 146.752 195.602C146.01 197.119 144.97 198.3 143.632 199.143C142.303 199.987 140.752 200.409 138.979 200.409ZM138.979 197.699C140.325 197.699 141.433 197.354 142.303 196.663C143.172 195.973 143.816 195.065 144.233 193.94C144.651 192.815 144.86 191.597 144.86 190.284C144.86 188.972 144.651 187.749 144.233 186.615C143.816 185.482 143.172 184.565 142.303 183.866C141.433 183.168 140.325 182.818 138.979 182.818C137.632 182.818 136.524 183.168 135.655 183.866C134.786 184.565 134.142 185.482 133.725 186.615C133.307 187.749 133.098 188.972 133.098 190.284C133.098 191.597 133.307 192.815 133.725 193.94C134.142 195.065 134.786 195.973 135.655 196.663C136.524 197.354 137.632 197.699 138.979 197.699ZM152.891 200V173.818H161.738C163.783 173.818 165.462 174.168 166.775 174.866C168.087 175.557 169.059 176.507 169.689 177.717C170.32 178.928 170.635 180.304 170.635 181.847C170.635 183.389 170.32 184.757 169.689 185.95C169.059 187.143 168.091 188.081 166.787 188.763C165.483 189.436 163.817 189.773 161.789 189.773H154.63V186.909H161.687C163.084 186.909 164.209 186.705 165.062 186.295C165.922 185.886 166.545 185.307 166.928 184.557C167.32 183.798 167.516 182.895 167.516 181.847C167.516 180.798 167.32 179.882 166.928 179.098C166.536 178.314 165.91 177.709 165.049 177.283C164.188 176.848 163.05 176.631 161.635 176.631H156.062V200H152.891ZM165.215 188.239L171.658 200H167.976L161.635 188.239H165.215ZM183.276 200.409C181.503 200.409 179.948 199.987 178.61 199.143C177.28 198.3 176.24 197.119 175.49 195.602C174.749 194.085 174.378 192.312 174.378 190.284C174.378 188.239 174.749 186.453 175.49 184.928C176.24 183.402 177.28 182.217 178.61 181.374C179.948 180.53 181.503 180.108 183.276 180.108C185.048 180.108 186.6 180.53 187.929 181.374C189.267 182.217 190.307 183.402 191.048 184.928C191.798 186.453 192.173 188.239 192.173 190.284C192.173 192.312 191.798 194.085 191.048 195.602C190.307 197.119 189.267 198.3 187.929 199.143C186.6 199.987 185.048 200.409 183.276 200.409ZM183.276 197.699C184.622 197.699 185.73 197.354 186.6 196.663C187.469 195.973 188.112 195.065 188.53 193.94C188.948 192.815 189.156 191.597 189.156 190.284C189.156 188.972 188.948 187.749 188.53 186.615C188.112 185.482 187.469 184.565 186.6 183.866C185.73 183.168 184.622 182.818 183.276 182.818C181.929 182.818 180.821 183.168 179.952 183.866C179.083 184.565 178.439 185.482 178.021 186.615C177.604 187.749 177.395 188.972 177.395 190.284C177.395 191.597 177.604 192.815 178.021 193.94C178.439 195.065 179.083 195.973 179.952 196.663C180.821 197.354 181.929 197.699 183.276 197.699ZM209.154 191.972V180.364H212.171V200H209.154V196.676H208.949C208.489 197.673 207.773 198.521 206.802 199.22C205.83 199.911 204.603 200.256 203.12 200.256C201.893 200.256 200.802 199.987 199.847 199.45C198.893 198.905 198.143 198.087 197.597 196.996C197.052 195.896 196.779 194.511 196.779 192.841V180.364H199.796V192.636C199.796 194.068 200.197 195.21 200.998 196.062C201.807 196.915 202.839 197.341 204.091 197.341C204.841 197.341 205.604 197.149 206.38 196.766C207.164 196.382 207.82 195.794 208.349 195.001C208.885 194.209 209.154 193.199 209.154 191.972ZM226.237 180.364V182.92H216.061V180.364H226.237ZM219.026 175.659H222.044V194.375C222.044 195.227 222.167 195.866 222.414 196.293C222.67 196.71 222.994 196.991 223.386 197.136C223.786 197.273 224.208 197.341 224.651 197.341C224.984 197.341 225.257 197.324 225.47 197.29C225.683 197.247 225.853 197.213 225.981 197.188L226.595 199.898C226.39 199.974 226.105 200.051 225.738 200.128C225.372 200.213 224.907 200.256 224.345 200.256C223.492 200.256 222.657 200.072 221.839 199.706C221.029 199.339 220.356 198.781 219.819 198.031C219.291 197.281 219.026 196.335 219.026 195.193V175.659ZM238.797 200.409C236.905 200.409 235.273 199.991 233.901 199.156C232.537 198.312 231.485 197.136 230.743 195.628C230.01 194.111 229.644 192.347 229.644 190.335C229.644 188.324 230.01 186.551 230.743 185.017C231.485 183.474 232.516 182.273 233.837 181.412C235.166 180.543 236.718 180.108 238.49 180.108C239.513 180.108 240.523 180.278 241.52 180.619C242.517 180.96 243.425 181.514 244.243 182.281C245.061 183.04 245.713 184.045 246.199 185.298C246.685 186.551 246.928 188.094 246.928 189.926V191.205H231.791V188.597H243.86C243.86 187.489 243.638 186.5 243.195 185.631C242.76 184.761 242.138 184.075 241.328 183.572C240.527 183.07 239.581 182.818 238.49 182.818C237.289 182.818 236.249 183.116 235.371 183.713C234.502 184.301 233.833 185.068 233.364 186.014C232.895 186.96 232.661 187.974 232.661 189.057V190.795C232.661 192.278 232.916 193.536 233.428 194.567C233.948 195.589 234.668 196.369 235.588 196.906C236.509 197.435 237.578 197.699 238.797 197.699C239.59 197.699 240.306 197.588 240.945 197.366C241.593 197.136 242.151 196.795 242.619 196.344C243.088 195.884 243.45 195.312 243.706 194.631L246.621 195.449C246.314 196.438 245.798 197.307 245.074 198.057C244.35 198.798 243.455 199.378 242.389 199.795C241.324 200.205 240.127 200.409 238.797 200.409Z" fill="#025A3D"/>
<path d="M119.812 129.31C137.114 129.31 151.296 114.447 152.505 95.6892H162C162.724 95.6892 163.406 95.3194 163.849 94.6909L173.123 81.5323C172.008 85.1711 171.375 89.053 171.375 93.103C171.375 113.069 186.094 129.31 204.188 129.31C222.281 129.31 237 113.069 237 93.103C237 73.1375 222.281 56.8961 204.188 56.8961C202.46 56.8961 200.777 57.0875 199.12 57.3745L193.071 28.4478H213.562C216.148 28.4478 218.25 30.7676 218.25 33.6202C218.25 36.4728 216.148 38.7926 213.562 38.7926H208.875V43.9651H213.562C218.733 43.9651 222.938 39.3254 222.938 33.6202C222.938 27.915 218.733 23.2754 213.562 23.2754H190.125C189.41 23.2754 188.735 23.6349 188.292 24.2504C187.847 24.8659 187.68 25.6728 187.842 26.4435L191.505 43.9651H148.301L146.597 38.7926H157.312C161.189 38.7926 164.344 35.3116 164.344 31.034C164.344 26.7564 161.189 23.2754 157.312 23.2754H133.875C128.705 23.2754 124.5 27.915 124.5 33.6202C124.5 39.3254 128.705 43.9651 133.875 43.9651C134.498 43.9651 135.094 43.6935 135.532 43.2073L139.533 38.7926H141.609L143.759 45.3125L143.595 45.2013L134.864 60.9642C130.35 58.3806 125.238 56.8961 119.812 56.8961C101.719 56.8961 87 73.1375 87 93.103C87 113.069 101.719 129.31 119.812 129.31ZM138.562 33.6202C137.939 33.6202 137.344 33.8918 136.905 34.378L132.989 38.6995C130.826 38.2418 129.188 36.1392 129.188 33.6202C129.188 30.7676 131.29 28.4478 133.875 28.4478H157.312C158.606 28.4478 159.656 29.609 159.656 31.034C159.656 32.459 158.606 33.6202 157.312 33.6202H138.562ZM204.188 62.0685C219.696 62.0685 232.312 75.9901 232.312 93.103C232.312 110.216 219.696 124.137 204.188 124.137C188.679 124.137 176.062 110.216 176.062 93.103C176.062 79.2952 184.282 67.5745 195.602 63.5582L201.902 93.6849L206.47 92.5211L200.175 62.4228C201.49 62.2133 202.821 62.0685 204.188 62.0685ZM186.368 62.7435L193.359 52.8254L194.545 58.497C191.62 59.4901 188.88 60.9409 186.368 62.7435ZM190.022 49.1375L162.752 87.822L150.005 49.1375H190.022ZM145.723 51.2788L158.655 90.5168H152.508C151.795 79.4608 146.578 69.7754 138.858 63.6745L145.723 51.2788ZM147.818 90.5168H123.991L136.406 68.1021C142.788 73.2745 147.127 81.3228 147.818 90.5168ZM119.812 62.0685C124.345 62.0685 128.616 63.2866 132.41 65.3944L117.811 91.753C117.37 92.5521 117.354 93.5504 117.766 94.3676C118.179 95.1849 118.966 95.6892 119.812 95.6892H147.818C146.62 111.592 134.531 124.137 119.812 124.137C104.304 124.137 91.6875 110.216 91.6875 93.103C91.6875 75.9901 104.304 62.0685 119.812 62.0685Z" fill="#025A3D"/>
<path d="M204.188 118.966C217.111 118.966 227.625 107.364 227.625 93.104H222.938C222.938 104.512 214.526 113.794 204.188 113.794V118.966Z" fill="#025A3D"/>
<path d="M119.812 72.4141V67.2417C106.889 67.2417 96.375 78.8434 96.375 93.1038H101.062C101.062 81.696 109.474 72.4141 119.812 72.4141Z" fill="#025A3D"/>
<path d="M116.187 26.8287L112.795 23.2598C111.666 24.5684 110.562 25.9417 109.521 27.3382L113.137 30.6253C114.108 29.3244 115.134 28.0468 116.187 26.8287Z" fill="#025A3D"/>
<path d="M122.993 20.0085L120.101 15.9404C118.805 17.0628 117.534 18.2447 116.33 19.4525L119.48 23.2827C120.605 22.1577 121.788 21.056 122.993 20.0085Z" fill="#025A3D"/>
<path d="M130.613 14.3504L128.283 9.86328C126.863 10.7633 125.452 11.7305 124.092 12.7391L126.71 17.0297C127.976 16.0883 129.291 15.1883 130.613 14.3504Z" fill="#025A3D"/>
<path d="M138.895 9.97567L137.187 5.16016C135.668 5.81447 134.142 6.54636 132.656 7.33257L134.679 11.9981C136.066 11.2662 137.482 10.586 138.895 9.97567Z" fill="#025A3D"/>
<path d="M110.344 34.6579L106.521 31.6631C105.576 33.1321 104.662 34.6657 103.812 36.2226L107.822 38.8993C108.616 37.451 109.465 36.026 110.344 34.6579Z" fill="#025A3D"/>
<path d="M102.019 52.6775L97.5795 51.0249C97.0545 52.7396 96.5811 54.4982 96.1709 56.2516L100.713 57.5421C101.093 55.9077 101.531 54.2706 102.019 52.6775Z" fill="#025A3D"/>
<path d="M105.586 43.3307L101.412 40.9824C100.664 42.6014 99.9633 44.2669 99.3281 45.9273L103.65 47.9316C104.236 46.385 104.89 44.8359 105.586 43.3307Z" fill="#025A3D"/>
<path d="M202.788 14.9994C201.471 13.9106 200.107 12.8632 198.736 11.8882L196.2 16.2382C197.478 17.1459 198.748 18.1235 199.974 19.1373L202.788 14.9994Z" fill="#025A3D"/>
<path d="M194.487 9.10535C193.038 8.23639 191.55 7.41914 190.069 6.67432L188.128 11.3838C189.511 12.0769 190.896 12.8373 192.248 13.6467L194.487 9.10535Z" fill="#025A3D"/>
<path d="M147.668 6.96909L146.611 1.93115C145.003 2.34236 143.4 2.82081 141.841 3.35357L143.233 8.29322C144.68 7.79667 146.173 7.35184 147.668 6.96909Z" fill="#025A3D"/>
<path d="M185.496 4.60671C183.954 3.97826 182.372 3.40929 180.802 2.91016L179.508 7.88085C180.97 8.34378 182.44 8.87654 183.877 9.46102L185.496 4.60671Z" fill="#025A3D"/>
<path d="M156.741 5.41017L156.356 0.255859C154.716 0.405859 153.068 0.620514 151.456 0.897239L152.175 6.01017C153.677 5.75155 155.213 5.54983 156.741 5.41017Z" fill="#025A3D"/>
<path d="M176.009 1.59515C174.401 1.22274 172.765 0.912392 171.141 0.671875L170.517 5.79774C172.029 6.02015 173.552 6.30981 175.048 6.65636L176.009 1.59515Z" fill="#025A3D"/>
<path d="M162 5.17242C163.322 5.17242 164.634 5.21897 165.938 5.30431L166.221 0.142242C164.827 0.0491381 163.418 0 162 0L161.285 0.00258602L161.332 5.175L162 5.17242Z" fill="#025A3D"/>
<path d="M127.179 133.311L124.596 137.627C125.974 138.63 127.392 139.585 128.813 140.464L131.107 135.954C129.783 135.134 128.461 134.247 127.179 133.311Z" fill="#025A3D"/>
<path d="M139.423 140.253C137.991 139.65 136.566 138.983 135.192 138.271L133.2 142.955C134.679 143.721 136.21 144.437 137.749 145.086L139.423 140.253Z" fill="#025A3D"/>
<path d="M203.266 134.596L200.419 130.487C199.212 131.506 197.951 132.494 196.664 133.425L199.242 137.746C200.62 136.748 201.975 135.688 203.266 134.596Z" fill="#025A3D"/>
<path d="M176.604 148.265L175.601 143.211C174.11 143.571 172.589 143.876 171.077 144.117L171.745 149.235C173.372 148.976 175.005 148.653 176.604 148.265Z" fill="#025A3D"/>
<path d="M195.019 140.571L192.738 136.053C191.404 136.873 190.026 137.648 188.644 138.357L190.622 143.046C192.108 142.286 193.587 141.453 195.019 140.571Z" fill="#025A3D"/>
<path d="M186.068 145.161L184.406 140.325C182.974 140.923 181.509 141.468 180.054 141.947L181.385 146.905C182.948 146.392 184.523 145.805 186.068 145.161Z" fill="#025A3D"/>
<path d="M157.317 144.639C155.792 144.517 154.252 144.331 152.747 144.088L152.065 149.206C153.684 149.47 155.337 149.669 156.975 149.801L157.317 144.639Z" fill="#025A3D"/>
<path d="M166.512 144.654C165.024 144.771 163.507 144.828 161.911 144.828L162 150C163.613 150 165.244 149.938 166.84 149.814L166.512 144.654Z" fill="#025A3D"/>
<path d="M148.221 143.169C146.73 142.802 145.235 142.372 143.773 141.886L142.427 146.841C143.995 147.361 145.603 147.824 147.206 148.217L148.221 143.169Z" fill="#025A3D"/>
</svg>
