<svg width="120" height="120" viewBox="0 0 120 120" fill="none" xmlns="http://www.w3.org/2000/svg">
<path d="M97.4232 95.2108L91.7952 91.4069C91.7952 91.4069 97.8888 88.9054 100.52 88.8926V65.0979L96.954 62.141V55.0536L100.52 53.9442V28.7329H19.0884V42.7978L23.076 44.5697V48.1134L25.6548 51.8651L19.0884 55.8515V96.6392C20.2272 95.6631 21.5328 95.1159 22.9584 95.5223C27.8832 96.9294 28.2348 93.4902 28.2348 93.4902C28.2348 93.4902 29.1732 97.5545 28.4364 101.462H39.864L43.7928 83.1717L46.1928 101.462H80.8632L84.0564 91.9274L88.512 101.462H97.9212L97.4232 95.2108Z" fill="#FBE7CD"/>
<path d="M94.9457 93.5364C93.1985 94.1359 91.7969 94.7109 91.7969 94.7109L97.4249 98.5148L97.6601 101.463H97.9229L97.4249 95.2112L94.9457 93.5364Z" fill="#EFDAB6"/>
<path d="M28.654 99.8091C28.6096 100.355 28.5412 100.91 28.438 101.463H28.7176C28.7152 100.879 28.6924 100.322 28.654 99.8091Z" fill="#EFDAB6"/>
<path d="M24.0542 52.8376L19.0898 55.8512V59.1549L25.6562 55.1685L24.0542 52.8376Z" fill="#EFDAB6"/>
<path d="M100.522 28.7329H19.0898V32.0366H100.522V28.7329Z" fill="#EFDAB6"/>
<path d="M96.9556 65.445L100.521 68.402V65.0983L96.9556 62.1414V65.445Z" fill="#EFDAB6"/>
<path d="M58.2721 36.3745C53.0065 36.3745 48.7393 40.1689 48.7393 44.8476C48.7393 48.978 51.3709 54.4792 58.2721 60.6108C65.1733 54.4792 67.8049 48.978 67.8049 44.8476C67.8049 40.1678 63.5377 36.3745 58.2721 36.3745ZM58.2721 47.0227C56.3053 47.0227 54.7105 45.6071 54.7105 43.8598C54.7105 42.1136 56.3053 40.6969 58.2721 40.6969C60.2389 40.6969 61.8313 42.1146 61.8313 43.8598C61.8313 45.6061 60.2389 47.0227 58.2721 47.0227Z" fill="#F68C43"/>
<path d="M19.0898 28.7339C25.9837 28.7339 31.5722 23.766 31.5722 17.6377C31.5722 11.5094 25.9837 6.5415 19.0898 6.5415C12.196 6.5415 6.60742 11.5094 6.60742 17.6377C6.60742 23.766 12.196 28.7339 19.0898 28.7339Z" fill="#EFDAB6"/>
<path d="M113.393 17.6376C113.393 11.5103 107.803 6.54248 100.911 6.54248H19.0898C25.9838 6.54248 31.5722 11.5103 31.5722 17.6376C31.5722 23.1644 27.0218 27.7332 21.0734 28.5802L21.1874 28.5717C21.0794 28.5877 20.969 28.5951 20.8598 28.609C20.6486 28.6357 20.4386 28.6655 20.225 28.6826C19.8518 28.7146 19.4738 28.7338 19.091 28.7338H100.913C103.456 28.7338 105.82 28.0543 107.793 26.8905L98.7458 19.8724L112.255 22.2491C112.977 20.8431 113.393 19.2857 113.393 17.6376Z" fill="#EFDAB6"/>
<path d="M28.9524 86.3939C30.9068 86.3939 32.4912 84.9855 32.4912 83.2481C32.4912 81.5107 30.9068 80.1023 28.9524 80.1023C26.998 80.1023 25.4136 81.5107 25.4136 83.2481C25.4136 84.9855 26.998 86.3939 28.9524 86.3939Z" fill="white"/>
<path d="M50.868 85.866C54.2652 81.5873 49.8588 74.0007 70.1844 73.8663C90.51 73.7318 89.5788 63.8891 93.9996 69.0126C98.4204 74.1361 89.4492 76.0243 90.6624 78.8554C91.8756 81.6865 76.7076 81.5521 75.342 87.6197C73.9764 93.6873 62.4492 95.6618 60.6288 92.1128C58.8084 88.5637 58.3536 88.024 53.8032 89.7766C49.2516 91.5282 48.2064 89.2166 50.868 85.866Z" fill="#6AC9CC"/>
<path d="M58.2721 61.1503C58.1173 61.1503 57.9613 61.098 57.8437 60.9924C51.5821 55.4293 48.1333 49.6956 48.1333 44.8473C48.1333 39.8774 52.6813 35.8345 58.2721 35.8345C63.8629 35.8345 68.4121 39.8774 68.4121 44.8473C68.4121 49.6946 64.9633 55.4283 58.7017 60.9924C58.5817 61.098 58.4269 61.1503 58.2721 61.1503ZM58.2721 36.9129C53.3509 36.9129 49.3465 40.4726 49.3465 44.8473C49.3465 49.2978 52.5121 54.608 58.2721 59.8435C64.0333 54.608 67.1989 49.2978 67.1989 44.8473C67.1977 40.4726 63.1933 36.9129 58.2721 36.9129ZM58.2721 47.5611C55.9741 47.5611 54.1033 45.9002 54.1033 43.8585C54.1033 41.8167 55.9729 40.1558 58.2721 40.1558C60.5689 40.1558 62.4385 41.8167 62.4385 43.8585C62.4385 45.9002 60.5689 47.5611 58.2721 47.5611ZM58.2721 41.2354C56.6425 41.2354 55.3177 42.412 55.3177 43.8595C55.3177 45.3071 56.6437 46.4837 58.2721 46.4837C59.9005 46.4837 61.2241 45.3071 61.2241 43.8595C61.2241 42.412 59.9005 41.2354 58.2721 41.2354Z" fill="#136296"/>
<path d="M19.0896 29.2732C11.8716 29.2732 6 24.0537 6 17.6383C6 11.223 11.8716 6.00342 19.0896 6.00342C26.3064 6.00342 32.178 11.223 32.178 17.6383C32.178 24.0537 26.3064 29.2732 19.0896 29.2732ZM19.0896 7.08296C12.5412 7.08296 7.2132 11.8182 7.2132 17.6394C7.2132 23.4606 12.54 28.1958 19.0896 28.1958C25.638 28.1958 30.9648 23.4606 30.9648 17.6394C30.9648 11.8182 25.6368 7.08296 19.0896 7.08296Z" fill="#136296"/>
<path d="M26.1742 27.3027C26.101 27.3027 26.0266 27.291 25.9546 27.2654C25.6426 27.1577 25.4878 26.8451 25.609 26.5678C28.9366 18.9513 25.5934 15.0897 24.0022 13.784C21.6454 11.8489 18.3346 11.29 15.7654 12.3908C13.9186 13.1834 12.6598 15.0278 12.4798 17.2018C12.307 19.2873 13.1866 21.1242 14.8306 22.1163C16.4758 23.1094 18.2758 23.1457 19.645 22.2187C20.8294 21.4154 21.3034 20.1364 20.851 18.9619C20.5858 18.2728 20.1838 17.8419 19.6222 17.6435C18.505 17.2498 17.101 17.8973 17.0866 17.9037C16.789 18.0424 16.423 17.9421 16.267 17.6797C16.1098 17.4173 16.2214 17.0919 16.5166 16.9511C16.5934 16.9138 18.421 16.0636 20.0626 16.6375C20.965 16.9533 21.6166 17.6189 21.9994 18.612C22.6138 20.209 21.9622 22.0021 20.3818 23.0753C18.9898 24.0204 16.621 24.4994 14.1502 23.0091C12.1426 21.7984 11.0662 19.5977 11.2702 17.124C11.4814 14.5649 13.0018 12.3791 15.2386 11.4201C18.253 10.1262 22.105 10.7577 24.8266 12.9914C26.6002 14.4475 30.3382 18.723 26.7418 26.9582C26.6458 27.1715 26.4166 27.3027 26.1742 27.3027Z" fill="#136296"/>
<path d="M19.1003 29.2734C18.7655 29.2734 18.4907 29.0323 18.4907 28.7336C18.4907 28.4349 18.7595 28.1938 19.0943 28.1938H19.1003C19.4351 28.1938 19.7075 28.4349 19.7075 28.7336C19.7075 29.0323 19.4363 29.2734 19.1003 29.2734Z" fill="#136296"/>
<path d="M19.1003 29.2734C18.7655 29.2734 18.4907 29.0323 18.4907 28.7336C18.4907 28.4349 18.7595 28.1938 19.0943 28.1938H19.1003C19.4351 28.1938 19.7075 28.4349 19.7075 28.7336C19.7075 29.0323 19.4363 29.2734 19.1003 29.2734Z" fill="#136296"/>
<path d="M100.91 29.2732H19.0896C18.7548 29.2732 18.4824 29.0321 18.4824 28.7334C18.4824 28.4347 18.7536 28.1937 19.0896 28.1937C19.428 28.1937 19.7808 28.1777 20.166 28.1457C20.3316 28.1329 20.4924 28.1115 20.6508 28.0913L20.9124 28.0603C20.9328 28.055 20.9544 28.0507 20.976 28.0486C26.7636 27.2251 30.9636 22.8472 30.9636 17.6394C30.9636 11.8193 25.6368 7.08296 19.0872 7.08296C18.7524 7.08296 18.48 6.84187 18.48 6.54319C18.48 6.24557 18.7512 6.00342 19.0872 6.00342H100.909C108.128 6.00342 114 11.223 114 17.6383C114 19.3067 113.598 20.9335 112.805 22.4738C112.688 22.701 112.412 22.8258 112.135 22.7789L100.854 20.7937L108.19 26.4837C108.332 26.5946 108.409 26.7578 108.396 26.9253C108.383 27.0928 108.283 27.2464 108.126 27.3392C105.98 28.6044 103.486 29.2732 100.91 29.2732ZM24.5892 28.1947H100.91C102.978 28.1947 104.988 27.72 106.77 26.8165L98.3448 20.2806C98.1372 20.1195 98.0772 19.8561 98.1996 19.6363C98.3208 19.4176 98.5884 19.2982 98.862 19.3451L111.892 21.6375C112.486 20.3553 112.787 19.0123 112.787 17.6394C112.787 11.8193 107.46 7.08296 100.91 7.08296H24.5916C29.0676 8.93374 32.178 12.9692 32.178 17.6394C32.178 22.2914 29.1372 26.3418 24.5892 28.1947Z" fill="#136296"/>
<path d="M19.1003 7.08296C18.7655 7.08296 18.4907 6.84187 18.4907 6.54319C18.4907 6.24557 18.7595 6.00342 19.0943 6.00342H19.1003C19.4351 6.00342 19.7075 6.2445 19.7075 6.54319C19.7075 6.84081 19.4363 7.08296 19.1003 7.08296Z" fill="#136296"/>
<path d="M97.9212 102.003H88.512C88.2672 102.003 88.0452 101.872 87.9516 101.671L84.15 93.5368L81.4428 101.617C81.366 101.847 81.1296 102.002 80.862 102.002H46.1916C45.8832 102.002 45.624 101.798 45.5892 101.526L43.6464 86.7235L40.4592 101.564C40.4052 101.818 40.1544 102.002 39.8628 102.002H28.4352C28.2564 102.002 28.0872 101.933 27.972 101.811C27.8568 101.69 27.8076 101.53 27.8364 101.374C28.254 99.1638 28.1148 96.8778 27.9276 95.3609C27.7476 95.5422 27.5316 95.715 27.2748 95.8665C26.1684 96.5172 24.6528 96.5748 22.7712 96.0361C21.7044 95.7321 20.6388 96.0575 19.5084 97.0271C19.3332 97.1775 19.074 97.2202 18.8496 97.1349C18.6252 97.0506 18.48 96.8554 18.48 96.6388V55.8522C18.48 55.674 18.5784 55.5076 18.7452 55.4074L24.8352 51.7111L22.5564 48.3968C22.4988 48.3125 22.4676 48.2144 22.4676 48.1151V44.9043L18.8148 43.2818C18.6096 43.19 18.48 43.0033 18.48 42.7996V28.7336C18.48 28.436 18.7512 28.1938 19.0872 28.1938H100.519C100.854 28.1938 101.126 28.4349 101.126 28.7336V53.9459C101.126 54.1753 100.963 54.379 100.72 54.4548L97.56 55.4372V61.907L100.933 64.704C101.056 64.8064 101.125 64.9493 101.125 65.0987V88.8933C101.125 89.1898 100.855 89.4309 100.522 89.433C98.6448 89.4416 94.7604 90.8465 92.9784 91.5313L97.788 94.7827C97.9272 94.8766 98.0136 95.0195 98.0256 95.1742L98.5236 101.426C98.5356 101.576 98.4768 101.723 98.3628 101.832C98.25 101.941 98.0892 102.003 97.9212 102.003ZM88.9164 100.924H97.2696L96.8376 95.4932L91.428 91.8375C91.2588 91.7233 91.1688 91.5377 91.1916 91.35C91.2144 91.1612 91.3464 90.9979 91.5408 90.919C91.7772 90.8219 96.9924 88.6917 99.9132 88.3898V65.3333L96.54 62.5364C96.4176 62.4339 96.348 62.291 96.348 62.1417V55.0543C96.348 54.8249 96.5112 54.6212 96.7548 54.5454L99.9144 53.563V29.2734H19.6956V42.4657L23.3484 44.0882C23.5536 44.18 23.6832 44.3666 23.6832 44.5704V47.9626L26.1732 51.5852C26.3412 51.8306 26.2644 52.1495 25.9968 52.3117L19.6956 56.137V95.5124C20.832 94.8489 21.9864 94.6803 23.1444 95.0099C24.6588 95.443 25.8228 95.4292 26.6064 94.9673C27.5052 94.4392 27.63 93.4525 27.6312 93.4418C27.6588 93.1751 27.9012 92.9671 28.2012 92.9522C28.4808 92.9405 28.7688 93.1197 28.8288 93.3821C28.866 93.5432 29.6868 97.1733 29.1396 100.923H39.3612L43.1952 83.071C43.2516 82.8097 43.5144 82.6283 43.8132 82.6326C44.112 82.6422 44.3592 82.8449 44.394 83.1094L46.7316 100.923H80.4096L83.4744 91.7735C83.5476 91.5548 83.7672 91.4001 84.024 91.3884C84.282 91.3777 84.5172 91.5089 84.6156 91.7201L88.9164 100.924Z" fill="#136296"/>
<path d="M29.9664 77.464C29.94 77.464 29.9124 77.4629 29.886 77.4587C29.5536 77.4192 29.3208 77.1504 29.364 76.8559C29.3688 76.8229 29.4888 76.0378 30.0648 74.9124C30.204 74.6414 30.5616 74.5209 30.8688 74.6446C31.1736 74.7683 31.308 75.0873 31.17 75.3583C30.6756 76.3247 30.5688 76.9904 30.5676 76.9968C30.5268 77.2666 30.2652 77.464 29.9664 77.464Z" fill="#136296"/>
<path d="M32.9643 72.6386C32.8131 72.6386 32.6619 72.5885 32.5443 72.4893C32.3019 72.2834 32.2935 71.9421 32.5263 71.7266C33.4827 70.838 34.6215 70.039 35.9103 69.351C36.1983 69.1973 36.5703 69.2795 36.7431 69.5355C36.9159 69.7904 36.8223 70.1222 36.5355 70.2758C35.3391 70.9148 34.2855 71.6551 33.4011 72.4744C33.2835 72.5832 33.1239 72.6386 32.9643 72.6386ZM39.9915 68.7909C39.7419 68.7909 39.5079 68.6533 39.4203 68.4314C39.3087 68.1509 39.4731 67.8426 39.7887 67.7423C41.0547 67.3434 42.4359 67.0116 43.8915 66.7566C44.2191 66.699 44.5395 66.89 44.6043 67.1823C44.6691 67.4746 44.4543 67.7583 44.1255 67.8159C42.7275 68.0602 41.4051 68.377 40.1955 68.7589C40.1271 68.7803 40.0587 68.7909 39.9915 68.7909ZM48.1311 67.3242C47.8191 67.3242 47.5539 67.1119 47.5275 66.8303C47.4987 66.5337 47.7471 66.2724 48.0807 66.2478C49.4115 66.1486 50.8203 66.0985 52.2675 66.0985C52.6107 66.1145 52.8915 66.3364 52.8915 66.6382C52.8915 66.9391 52.6035 67.1887 52.2807 67.178C50.8539 67.178 49.4787 67.2271 48.1827 67.3242C48.1659 67.3231 48.1491 67.3242 48.1311 67.3242ZM57.0339 67.2601L56.4519 67.258C56.1171 67.2559 55.8471 67.0116 55.8507 66.714C55.8531 66.4185 56.1255 66.1795 56.4579 66.1795C56.4591 66.1795 56.4615 66.1795 56.4627 66.1795L57.0339 66.1817C58.2339 66.1817 59.4267 66.1475 60.5799 66.0814C60.9039 66.0622 61.2027 66.2884 61.2243 66.5849C61.2459 66.8815 60.9927 67.1385 60.6579 67.1577C59.4795 67.226 58.2603 67.2601 57.0339 67.2601ZM64.7583 66.7673C64.4631 66.7673 64.2039 66.5753 64.1583 66.3086C64.1091 66.0142 64.3371 65.739 64.6683 65.6952C66.0495 65.5107 67.4031 65.2707 68.6931 64.9816C69.0183 64.9101 69.3483 65.084 69.4299 65.3731C69.5115 65.6622 69.3147 65.9555 68.9895 66.0281C67.6623 66.3257 66.2703 66.5732 64.8495 66.7631C64.8195 66.7663 64.7883 66.7673 64.7583 66.7673ZM72.8151 64.9432C72.5703 64.9432 72.3387 64.8099 72.2475 64.5933C72.1287 64.3149 72.2883 64.0034 72.6015 63.8989C73.9023 63.4636 75.1539 62.9623 76.3227 62.4086C76.6203 62.2678 76.9863 62.3681 77.1435 62.6305C77.3007 62.8929 77.1891 63.2204 76.8939 63.3602C75.6783 63.9362 74.3775 64.4568 73.0275 64.908C72.9591 64.9315 72.8859 64.9432 72.8151 64.9432ZM80.1279 61.4507C79.9419 61.4507 79.7595 61.375 79.6407 61.2331C79.4415 60.9941 79.4967 60.656 79.7655 60.4789C80.8659 59.7525 81.8919 58.9513 82.8135 58.099C83.0463 57.8835 83.4291 57.8771 83.6715 58.0841C83.9127 58.29 83.9199 58.6313 83.6883 58.8468C82.7199 59.7418 81.6447 60.5824 80.4891 61.3451C80.3799 61.4166 80.2527 61.4507 80.1279 61.4507ZM85.8567 56.133C85.7415 56.133 85.6239 56.1042 85.5207 56.0424C85.2411 55.877 85.1667 55.5421 85.3527 55.2946C86.0979 54.3014 86.7483 53.2379 87.2883 52.1338C87.4215 51.8607 87.7791 51.7349 88.0863 51.8533C88.3935 51.9717 88.5351 52.2896 88.4019 52.5627C87.8343 53.7265 87.1491 54.8465 86.3631 55.893C86.2443 56.0488 86.0523 56.133 85.8567 56.133ZM89.1639 49.3838C89.1159 49.3838 89.0679 49.3784 89.0199 49.3688C88.6947 49.2984 88.4955 49.0062 88.5747 48.7171C88.8891 47.5725 89.1087 46.3724 89.2275 45.1499C89.2563 44.8534 89.5395 44.6261 89.8839 44.6592C90.2175 44.6848 90.4647 44.9462 90.4359 45.2427C90.3123 46.5196 90.0831 47.7741 89.7543 48.9731C89.6847 49.2184 89.4363 49.3838 89.1639 49.3838Z" fill="#136296"/>
<path d="M89.8991 41.9878C89.5775 41.9878 89.3099 41.7627 89.2931 41.4747C89.2607 40.8752 89.2043 40.2533 89.1263 39.6239C89.0891 39.3285 89.3303 39.0618 89.6627 39.0287C89.9975 38.9946 90.2951 39.2101 90.3323 39.5055C90.4127 40.1562 90.4715 40.8006 90.5051 41.4214C90.5207 41.719 90.2627 41.9718 89.9291 41.9868C89.9195 41.9878 89.9087 41.9878 89.8991 41.9878Z" fill="#136296"/>
<path d="M90.247 36.3743L91.5334 35.2297C91.771 35.0195 91.771 34.6771 91.5334 34.4669C91.2958 34.2568 90.913 34.2568 90.6754 34.4669L89.389 35.6115L88.1026 34.4669C87.865 34.2568 87.4822 34.2568 87.2446 34.4669C87.007 34.6771 87.007 35.0184 87.2446 35.2297L88.531 36.3743L87.2446 37.5189C87.007 37.729 87.007 38.0714 87.2446 38.2816C87.3634 38.3872 87.5182 38.4395 87.673 38.4395C87.8278 38.4395 87.9838 38.3872 88.1014 38.2816L89.3878 37.137L90.6742 38.2816C90.793 38.3872 90.9478 38.4395 91.1026 38.4395C91.2574 38.4395 91.4134 38.3872 91.531 38.2816C91.7686 38.0714 91.7686 37.7301 91.531 37.5189L90.247 36.3743Z" fill="#F0566F"/>
<path d="M28.9526 86.9334C26.6666 86.9334 24.8066 85.28 24.8066 83.2478C24.8066 81.2157 26.6666 79.5623 28.9526 79.5623C31.2386 79.5623 33.0986 81.2157 33.0986 83.2478C33.0974 85.28 31.2386 86.9334 28.9526 86.9334ZM28.9526 80.6418C27.3362 80.6418 26.0198 81.8109 26.0198 83.2478C26.0198 84.6847 27.335 85.8549 28.9526 85.8549C30.569 85.8549 31.8854 84.6858 31.8854 83.2478C31.8854 81.8099 30.569 80.6418 28.9526 80.6418Z" fill="#136296"/>
<path d="M65.0015 94.4117C62.5883 94.4117 60.7547 93.6575 60.0755 92.3347C58.3367 88.9468 58.1951 88.6705 54.0431 90.2706C51.0023 91.443 49.7543 90.7496 49.2803 90.2311C48.3887 89.2561 48.7859 87.5515 50.3723 85.5546C51.1439 84.5838 51.4895 83.3944 51.8543 82.1357C53.0399 78.0554 54.3839 73.4311 70.1795 73.3255C81.4403 73.2508 85.9823 70.1957 88.6967 68.3705C90.7991 66.9571 92.1875 66.0248 94.4807 68.6831C97.4735 72.1521 94.8767 74.4061 92.9807 76.0521C91.6787 77.1828 90.9119 77.9221 91.2287 78.6624C91.3871 79.0315 91.3715 79.407 91.1843 79.7473C90.6143 80.7799 88.5887 81.3292 85.7855 82.0877C81.7139 83.1907 76.6475 84.5625 75.9359 87.7243C75.0455 91.683 70.3199 93.9306 66.3047 94.3423C65.8559 94.3893 65.4191 94.4117 65.0015 94.4117ZM57.4319 88.2662C59.1155 88.2662 59.9039 89.4012 61.1807 91.8878C61.7411 92.9812 63.6923 93.5252 66.1667 93.2713C69.8723 92.8905 74.0099 90.7901 74.7467 87.512C75.5999 83.7187 81.0515 82.2413 85.4327 81.0551C87.5591 80.479 89.7575 79.8838 90.0947 79.2715C90.1283 79.2117 90.1403 79.1509 90.0947 79.0453C89.4719 77.5903 90.8243 76.4158 92.1335 75.2798C94.0475 73.6178 95.8547 72.0486 93.5171 69.3391C91.9583 67.531 91.5215 67.8222 89.4287 69.2303C86.5943 71.1366 81.8519 74.3272 70.1891 74.404C55.3247 74.5021 54.1583 78.5194 53.0291 82.4045C52.6523 83.7016 52.2623 85.0425 51.3635 86.1754C50.0063 87.8843 49.8119 89.1015 50.2223 89.5495C50.5547 89.9122 51.6047 90.0327 53.5607 89.2796C55.2851 88.6172 56.4959 88.2662 57.4319 88.2662Z" fill="#136296"/>
<path d="M56.7385 83.1247C56.7097 83.1247 56.6821 83.1236 56.6521 83.1194C56.3221 83.0777 56.0929 82.81 56.1361 82.5166C56.2621 81.6771 57.2197 80.092 59.8189 80.1656C60.1537 80.173 60.4189 80.4205 60.4105 80.7181C60.4021 81.0157 60.1093 81.26 59.7889 81.243C59.7493 81.2419 59.7121 81.2419 59.6749 81.2419C57.6445 81.2419 57.3649 82.5166 57.3397 82.6639C57.2929 82.9305 57.0349 83.1247 56.7385 83.1247Z" fill="#136296"/>
<path d="M72.906 79.1311C72.8772 79.1311 72.8496 79.13 72.8196 79.1258C72.4896 79.0842 72.2604 78.8164 72.3036 78.5231C72.4296 77.6835 73.386 76.0973 75.9864 76.172C76.3212 76.1794 76.5864 76.4269 76.578 76.7246C76.5696 77.0179 76.2996 77.2505 75.9708 77.2505C75.966 77.2505 75.9612 77.2505 75.9552 77.2505C75.9156 77.2494 75.8784 77.2494 75.8412 77.2494C73.8108 77.2494 73.5312 78.5241 73.506 78.6713C73.4604 78.938 73.2012 79.1311 72.906 79.1311Z" fill="#136296"/>
<path d="M85.3405 78.189C85.3117 78.189 85.2841 78.1879 85.2541 78.1836C84.9241 78.142 84.6949 77.8743 84.7381 77.5809C84.8641 76.7414 85.8205 75.1552 88.4209 75.2298C88.7557 75.2373 89.0209 75.4848 89.0125 75.7824C89.0041 76.08 88.7101 76.3254 88.3909 76.3072C88.3513 76.3062 88.3141 76.3062 88.2769 76.3062C86.2465 76.3062 85.9669 77.5809 85.9417 77.7281C85.8961 77.9959 85.6369 78.189 85.3405 78.189Z" fill="#136296"/>
<path d="M66.5197 89.7697C66.4909 89.7697 66.4633 89.7686 66.4333 89.7644C66.1033 89.7228 65.8741 89.455 65.9173 89.1616C66.0433 88.3221 66.9961 86.7412 69.6001 86.8106C69.9349 86.818 70.2001 87.0655 70.1917 87.3631C70.1833 87.6608 69.9145 87.9018 69.5701 87.888C69.5305 87.8869 69.4933 87.8869 69.4561 87.8869C67.4257 87.8869 67.1461 89.1616 67.1209 89.3089C67.0753 89.5755 66.8161 89.7697 66.5197 89.7697Z" fill="#136296"/>
</svg>
