<svg width="36" height="36" viewBox="0 0 36 36" fill="none" xmlns="http://www.w3.org/2000/svg">
<path d="M17.25 32.625C8.775 32.625 1.875 25.725 1.875 17.25C1.875 8.775 8.775 1.875 17.25 1.875C25.725 1.875 32.625 8.775 32.625 17.25C32.625 25.725 25.725 32.625 17.25 32.625ZM17.25 4.125C10.005 4.125 4.125 10.02 4.125 17.25C4.125 24.48 10.005 30.375 17.25 30.375C24.495 30.375 30.375 24.48 30.375 17.25C30.375 10.02 24.495 4.125 17.25 4.125Z" fill="#025A3D"/>
<path d="M33.0002 34.125C32.7152 34.125 32.4302 34.02 32.2052 33.795L29.2052 30.795C28.7702 30.36 28.7702 29.64 29.2052 29.205C29.6402 28.77 30.3602 28.77 30.7952 29.205L33.7952 32.205C34.2302 32.64 34.2302 33.36 33.7952 33.795C33.5702 34.02 33.2852 34.125 33.0002 34.125Z" fill="#025A3D"/>
</svg>
